<svg width="251" height="200" viewBox="0 0 251 200" fill="none" xmlns="http://www.w3.org/2000/svg">
<path d="M131.055 13.866C123.466 13.866 100.298 4.80946 93.2225 2.76521M93.2225 2.76521C86.302 0.765674 82.8567 2.46253 75.707 1.17719C67.6174 -0.277122 38.8676 7.69889 38.8676 7.69889C38.8676 7.69889 24.6623 6.77499 21.0684 10.3665C18.3321 13.101 14.9287 15.3516 12.2043 17.9965C8.86171 21.2415 6.52767 26.0912 4.19109 29.8718M93.2225 2.76521C103.427 5.16197 117.817 8.39786 123.502 16.4476C131.021 27.092 127.855 38.4701 118.042 47.4265C111.646 53.2642 102.624 57.1673 94.3217 60.8507C88.2286 63.5538 82.232 64.2447 75.707 65.7844C70.4592 67.0226 65.2664 67.5628 59.787 67.5628C52.0731 67.5628 43.0541 68.6192 35.4638 67.2759C25.7255 65.5526 17.5453 60.7143 10.5733 55.1712C5.92371 51.4746 1 46.4911 1 40.9439C1 36.9724 1.97561 33.4564 4.19109 29.8718M93.2225 2.76521C84.2875 0.66665 72.1431 0.470621 63.4035 2.90863C59.4582 4.00925 60.5358 0.741659 57.5 3.19761C55.9774 4.42941 31.0856 6.10868 31.0856 7.69889C31.0856 12.8156 0.59117 25.7945 4.19109 29.8718M4.19109 29.8718C7.65602 33.7961 8 64.4206 55 62.6357C102 60.8507 111.5 49.0657 120.5 60.8507C129.5 72.6357 120.5 62.6357 131.055 74.2749C141.609 85.9141 159.781 98.982 172.397 112.769C178.729 119.689 188.884 125.334 194.5 132.636C196.6 135.366 199.142 137.744 202 139.636C207.236 143.102 209.747 145.731 213.881 150.116C217.243 153.682 228.611 171.14 230 175.636" stroke="#CB9863" stroke-width="2" stroke-linecap="round" stroke-linejoin="round"/>
<path d="M247.929 198.146C247.929 194.275 249.464 182.765 249.464 186.636" stroke="#CB9863" stroke-width="2" stroke-linecap="round" stroke-linejoin="round"/>
<path d="M247.5 198.636C242 198.136 238.5 199.636 232.5 198.136" stroke="#CB9863" stroke-width="2" stroke-linecap="round" stroke-linejoin="round"/>
<path d="M247.762 198.071C249.528 202.595 226.793 170.979 230.099 174.283C233.492 177.673 234.434 182.604 237.394 186.219C240.185 189.628 243.857 196.12 247.762 198.071Z" stroke="#CB9863" stroke-width="2" stroke-linecap="round" stroke-linejoin="round"/>
</svg>
